<svg width="200" height="200" viewBox="0 0 200 200" fill="none" xmlns="http://www.w3.org/2000/svg">
<path d="M170 0H30C13.4315 0 0 13.4315 0 30V170C0 186.569 13.4315 200 30 200H170C186.569 200 200 186.569 200 170V30C200 13.4315 186.569 0 170 0Z" fill="#294172" fill-opacity="0.72"/>
<path d="M149 31C190.1 38.1479 191.877 96.499 151.287 106.134L139.65 108.896C136.561 109.63 133.396 110 130.221 110H49.697C47.903 110 46.114 110.173 44.353 110.516L40.828 111.202C7.41901 117.709 12.981 167.088 47 166" stroke="#294172" stroke-width="20" stroke-linecap="round"/>
<path d="M61 110H143" stroke="#F8F8FA" stroke-width="25" stroke-linecap="round"/>
<path d="M155 33C132.291 17.0197 101 33.2622 101 61.0303V109V143.602C101 171.02 66.957 183.719 49 163" stroke="#F8F8FA" stroke-width="25"/>
</svg>
